<svg width="188" height="140" viewBox="0 0 188 140" fill="none" xmlns="http://www.w3.org/2000/svg">
<path d="M156 0H36C30.4772 0 26 4.47715 26 10V130C26 135.523 30.4772 140 36 140H156C161.523 140 166 135.523 166 130V10C166 4.47715 161.523 0 156 0Z" fill="#F3F4F6"/>
<path d="M48 54H183C184.326 54 185.598 54.5268 186.536 55.4645C187.473 56.4021 188 57.6739 188 59V84C188 85.3261 187.473 86.5979 186.536 87.5355C185.598 88.4732 184.326 89 183 89H48C46.6739 89 45.4021 88.4732 44.4645 87.5355C43.5268 86.5979 43 85.3261 43 84V59C43 57.6739 43.5268 56.4021 44.4645 55.4645C45.4021 54.5268 46.6739 54 48 54V54Z" fill="white"/>
<path d="M122 62H96C94.3431 62 93 63.3431 93 65C93 66.6569 94.3431 68 96 68H122C123.657 68 125 66.6569 125 65C125 63.3431 123.657 62 122 62Z" fill="#E5E6EA"/>
<path d="M140 75H96C94.3431 75 93 76.3431 93 78C93 79.6569 94.3431 81 96 81H140C141.657 81 143 79.6569 143 78C143 76.3431 141.657 75 140 75Z" fill="#F3F4F6"/>
<path d="M73.5 81C78.7467 81 83 76.7467 83 71.5C83 66.2533 78.7467 62 73.5 62C68.2533 62 64 66.2533 64 71.5C64 76.7467 68.2533 81 73.5 81Z" fill="#676CFF"/>
<path d="M69.14 74L70.827 68.96H71.695L73.382 74H72.7345L71.156 69.324H71.352L69.7875 74H69.14ZM69.952 72.8205V72.236H72.57V72.8205H69.952ZM74.0086 74V68.96H76.0001C76.0491 68.96 76.1074 68.9623 76.1751 68.967C76.2427 68.9693 76.3081 68.9763 76.3711 68.988C76.6441 69.03 76.8727 69.1233 77.0571 69.268C77.2437 69.4127 77.3837 69.5958 77.4771 69.8175C77.5704 70.0368 77.6171 70.2807 77.6171 70.549C77.6171 70.815 77.5692 71.0588 77.4736 71.2805C77.3802 71.4998 77.2402 71.683 77.0536 71.83C76.8692 71.9747 76.6417 72.068 76.3711 72.11C76.3081 72.1193 76.2427 72.1263 76.1751 72.131C76.1074 72.1357 76.0491 72.138 76.0001 72.138H74.6316V74H74.0086ZM74.6316 71.5465H75.9791C76.0234 71.5465 76.0736 71.5442 76.1296 71.5395C76.1879 71.5348 76.2427 71.5267 76.2941 71.515C76.4551 71.4777 76.5857 71.41 76.6861 71.312C76.7887 71.2117 76.8634 71.095 76.9101 70.962C76.9567 70.8267 76.9801 70.689 76.9801 70.549C76.9801 70.409 76.9567 70.2725 76.9101 70.1395C76.8634 70.0042 76.7887 69.8863 76.6861 69.786C76.5857 69.6857 76.4551 69.618 76.2941 69.583C76.2427 69.569 76.1879 69.5608 76.1296 69.5585C76.0736 69.5538 76.0234 69.5515 75.9791 69.5515H74.6316V71.5465Z" fill="white"/>
<path d="M5 97H140C141.326 97 142.598 97.5268 143.536 98.4645C144.473 99.4021 145 100.674 145 102V127C145 128.326 144.473 129.598 143.536 130.536C142.598 131.473 141.326 132 140 132H5C3.67392 132 2.40215 131.473 1.46447 130.536C0.526784 129.598 0 128.326 0 127L0 102C0 100.674 0.526784 99.4021 1.46447 98.4645C2.40215 97.5268 3.67392 97 5 97V97Z" fill="white"/>
<path d="M79 105H53C51.3431 105 50 106.343 50 108C50 109.657 51.3431 111 53 111H79C80.6569 111 82 109.657 82 108C82 106.343 80.6569 105 79 105Z" fill="#E5E6EA"/>
<path d="M97 118H53C51.3431 118 50 119.343 50 121C50 122.657 51.3431 124 53 124H97C98.6569 124 100 122.657 100 121C100 119.343 98.6569 118 97 118Z" fill="#F3F4F6"/>
<path d="M17.5 124C22.7467 124 27 119.747 27 114.5C27 109.253 22.7467 105 17.5 105C12.2533 105 8 109.253 8 114.5C8 119.747 12.2533 124 17.5 124Z" fill="#676CFF"/>
<path d="M14.4 117.102C14.0477 117.102 13.749 117.006 13.504 116.814C13.259 116.623 13.091 116.366 13 116.044L13.6195 115.897C13.6568 116.068 13.7467 116.212 13.889 116.331C14.0337 116.45 14.1993 116.51 14.386 116.51C14.5073 116.51 14.631 116.481 14.757 116.422C14.883 116.362 14.9798 116.264 15.0475 116.128C15.0942 116.035 15.121 115.932 15.128 115.82C15.135 115.706 15.1385 115.572 15.1385 115.418V111.96H15.7685V115.418C15.7685 115.563 15.7673 115.692 15.765 115.806C15.765 115.921 15.7533 116.03 15.73 116.135C15.709 116.238 15.667 116.343 15.604 116.45C15.478 116.672 15.3088 116.837 15.0965 116.944C14.8865 117.049 14.6543 117.102 14.4 117.102ZM18.6076 117.105C18.2506 117.105 17.9286 117.044 17.6416 116.923C17.3569 116.802 17.1213 116.629 16.9346 116.405C16.7503 116.179 16.6301 115.911 16.5741 115.603L17.2181 115.502C17.2998 115.819 17.4689 116.068 17.7256 116.247C17.9846 116.425 18.2891 116.513 18.6391 116.513C18.8654 116.513 19.0696 116.478 19.2516 116.408C19.4359 116.336 19.5818 116.233 19.6891 116.101C19.7964 115.967 19.8501 115.81 19.8501 115.628C19.8501 115.516 19.8303 115.42 19.7906 115.341C19.7533 115.259 19.7008 115.19 19.6331 115.134C19.5678 115.076 19.4931 115.027 19.4091 114.987C19.3251 114.948 19.2376 114.915 19.1466 114.889L17.8621 114.508C17.7221 114.466 17.5868 114.413 17.4561 114.35C17.3254 114.285 17.2088 114.205 17.1061 114.109C17.0034 114.011 16.9218 113.894 16.8611 113.759C16.8004 113.621 16.7701 113.459 16.7701 113.272C16.7701 112.974 16.8471 112.719 17.0011 112.509C17.1574 112.297 17.3686 112.135 17.6346 112.023C17.9006 111.911 18.2004 111.856 18.5341 111.858C18.8724 111.861 19.1746 111.921 19.4406 112.04C19.7089 112.157 19.9306 112.325 20.1056 112.544C20.2829 112.764 20.4019 113.026 20.4626 113.332L19.8011 113.447C19.7661 113.242 19.6879 113.066 19.5666 112.919C19.4476 112.77 19.2983 112.655 19.1186 112.576C18.9389 112.494 18.7418 112.452 18.5271 112.45C18.3218 112.448 18.1363 112.48 17.9706 112.548C17.8049 112.616 17.6731 112.71 17.5751 112.831C17.4771 112.95 17.4281 113.088 17.4281 113.244C17.4281 113.398 17.4724 113.523 17.5611 113.619C17.6498 113.712 17.7583 113.787 17.8866 113.843C18.0173 113.897 18.1444 113.941 18.2681 113.976L19.2271 114.252C19.3368 114.283 19.4628 114.325 19.6051 114.378C19.7498 114.432 19.8898 114.508 20.0251 114.606C20.1604 114.702 20.2724 114.83 20.3611 114.991C20.4498 115.15 20.4941 115.35 20.4941 115.593C20.4941 115.836 20.4451 116.051 20.3471 116.24C20.2514 116.429 20.1173 116.588 19.9446 116.716C19.7719 116.842 19.5713 116.938 19.3426 117.004C19.1139 117.071 18.8689 117.105 18.6076 117.105Z" fill="white"/>
<path d="M140 11H5C2.23858 11 0 13.2386 0 16V41C0 43.7614 2.23858 46 5 46H140C142.761 46 145 43.7614 145 41V16C145 13.2386 142.761 11 140 11Z" fill="white"/>
<path d="M77 19H51C49.3431 19 48 20.3431 48 22C48 23.6569 49.3431 25 51 25H77C78.6569 25 80 23.6569 80 22C80 20.3431 78.6569 19 77 19Z" fill="#E5E6EA"/>
<path d="M95 32H51C49.3431 32 48 33.3431 48 35C48 36.6569 49.3431 38 51 38H95C96.6569 38 98 36.6569 98 35C98 33.3431 96.6569 32 95 32Z" fill="#F3F4F6"/>
<path d="M30.5 38C35.7467 38 40 33.7467 40 28.5C40 23.2533 35.7467 19 30.5 19C25.2533 19 21 23.2533 21 28.5C21 33.7467 25.2533 38 30.5 38Z" fill="#676CFF"/>
<path d="M27.6916 31.105C27.3346 31.105 27.0126 31.0443 26.7256 30.923C26.4409 30.8017 26.2053 30.629 26.0186 30.405C25.8343 30.1787 25.7141 29.9115 25.6581 29.6035L26.3021 29.502C26.3838 29.8193 26.5529 30.0678 26.8096 30.2475C27.0686 30.4248 27.3731 30.5135 27.7231 30.5135C27.9494 30.5135 28.1536 30.4785 28.3356 30.4085C28.5199 30.3362 28.6658 30.2335 28.7731 30.1005C28.8804 29.9675 28.9341 29.81 28.9341 29.628C28.9341 29.516 28.9143 29.4203 28.8746 29.341C28.8373 29.2593 28.7848 29.1905 28.7171 29.1345C28.6518 29.0762 28.5771 29.0272 28.4931 28.9875C28.4091 28.9478 28.3216 28.9152 28.2306 28.8895L26.9461 28.508C26.8061 28.466 26.6708 28.4135 26.5401 28.3505C26.4094 28.2852 26.2928 28.2047 26.1901 28.109C26.0874 28.011 26.0058 27.8943 25.9451 27.759C25.8844 27.6213 25.8541 27.4592 25.8541 27.2725C25.8541 26.9738 25.9311 26.7195 26.0851 26.5095C26.2414 26.2972 26.4526 26.135 26.7186 26.023C26.9846 25.911 27.2844 25.8562 27.6181 25.8585C27.9564 25.8608 28.2586 25.9215 28.5246 26.0405C28.7929 26.1572 29.0146 26.3252 29.1896 26.5445C29.3669 26.7638 29.4859 27.0263 29.5466 27.332L28.8851 27.4475C28.8501 27.2422 28.7719 27.066 28.6506 26.919C28.5316 26.7697 28.3823 26.6553 28.2026 26.576C28.0229 26.4943 27.8258 26.4523 27.6111 26.45C27.4058 26.4477 27.2203 26.4803 27.0546 26.548C26.8889 26.6157 26.7571 26.7102 26.6591 26.8315C26.5611 26.9505 26.5121 27.0882 26.5121 27.2445C26.5121 27.3985 26.5564 27.5233 26.6451 27.619C26.7338 27.7123 26.8423 27.787 26.9706 27.843C27.1013 27.8967 27.2284 27.941 27.3521 27.976L28.3111 28.2525C28.4208 28.2828 28.5468 28.3248 28.6891 28.3785C28.8338 28.4322 28.9738 28.508 29.1091 28.606C29.2444 28.7017 29.3564 28.83 29.4451 28.991C29.5338 29.1497 29.5781 29.3503 29.5781 29.593C29.5781 29.8357 29.5291 30.0515 29.4311 30.2405C29.3354 30.4295 29.2013 30.5882 29.0286 30.7165C28.8559 30.8425 28.6553 30.9382 28.4266 31.0035C28.1979 31.0712 27.9529 31.105 27.6916 31.105ZM30.3123 31V25.96H31.8663C31.9176 25.96 32.0074 25.9612 32.1358 25.9635C32.2641 25.9658 32.3866 25.9752 32.5033 25.9915C32.8929 26.0428 33.2184 26.1852 33.4798 26.4185C33.7434 26.6495 33.9418 26.9435 34.0748 27.3005C34.2078 27.6575 34.2743 28.0507 34.2743 28.48C34.2743 28.9093 34.2078 29.3025 34.0748 29.6595C33.9418 30.0165 33.7434 30.3117 33.4798 30.545C33.2184 30.776 32.8929 30.9172 32.5033 30.9685C32.3866 30.9825 32.2629 30.9918 32.1323 30.9965C32.0039 30.9988 31.9153 31 31.8663 31H30.3123ZM30.9528 30.405H31.8663C31.9549 30.405 32.0541 30.4027 32.1638 30.398C32.2734 30.391 32.3691 30.3805 32.4508 30.3665C32.7261 30.3152 32.9489 30.1997 33.1193 30.02C33.2896 29.8403 33.4144 29.6163 33.4938 29.348C33.5731 29.0797 33.6128 28.7903 33.6128 28.48C33.6128 28.1627 33.5719 27.8698 33.4903 27.6015C33.4109 27.3332 33.2861 27.1103 33.1158 26.933C32.9454 26.7557 32.7238 26.6425 32.4508 26.5935C32.3691 26.5772 32.2723 26.5667 32.1603 26.562C32.0483 26.5573 31.9503 26.555 31.8663 26.555H30.9528V30.405Z" fill="white"/>
</svg>
